<svg width="597" height="380" viewBox="0 0 597 380" fill="none" xmlns="http://www.w3.org/2000/svg">
<path fill-rule="evenodd" clip-rule="evenodd" d="M382.637 129.408C380.513 130.197 377.419 132.115 375.762 133.671C371.397 137.769 367.002 147.518 367.001 153.103C367 155.635 366.705 160.53 366.344 163.98L365.689 170.253L353.344 169.55L341 168.847V186.889C341 206.589 340.096 210.724 335.314 212.903C331.441 214.667 325.557 214.226 322.669 211.955C318.851 208.951 318.012 204.324 318.006 186.25L318 170H307.362H296.725L297.435 178.75L298.145 187.5L295.221 183.464C291.258 177.993 286.569 174.183 280 171.096C275.233 168.855 273.164 168.51 264.479 168.505C255.194 168.5 253.974 168.738 247.874 171.741C243.949 173.673 239.427 176.974 236.678 179.913L232.066 184.843L229.962 181.439C221.813 168.253 203.161 163.973 190.7 172.429C188.754 173.749 186.901 174.568 186.581 174.248C186.262 173.928 186 163.842 186 151.833V130H176.112H166.224L165.495 153.331C165.094 166.163 165.072 179.1 165.446 182.081L166.126 187.5L163.158 182.452C157.677 173.13 148.69 168.615 135.5 168.558C127.447 168.523 125.959 168.818 121.362 171.358C115.131 174.8 108.764 181.107 106.072 186.505L104.08 190.5L104.04 160.25L104 130H94H84V179.5V229H94H104V219.304V209.608L106.838 214.054C113.993 225.262 122.828 230.306 135.5 230.419C146.573 230.518 153.682 228.057 160.606 221.73L166 216.799V222.9V229H176.43H186.86L186.02 226.068L185.179 223.136L191.339 226.519C194.728 228.38 199.343 230.195 201.595 230.554C211.123 232.071 223.148 226.832 229.569 218.365L232.705 214.231L234.364 217.038C236.598 220.822 244.381 226.375 250.5 228.552C257.375 230.998 270.842 231.072 277.649 228.7C285.089 226.108 291.875 221.266 295.021 216.306L297.759 211.988L300.351 217.284C304.577 225.922 311.418 229.623 325.118 230.685C340.497 231.878 354.095 226.834 358.591 218.271C360.434 214.76 360.934 211.66 361.534 200.021C362.232 186.466 362.329 186 364.454 186H366.651L366.194 207.5L365.736 229H376.368H387V207.5V186H393H399V207.5V229H408.901H418.803L419.535 217.283C419.937 210.839 420.024 201.164 419.728 195.783L419.189 186H423.018H426.847L425.181 189.25C422.738 194.018 422.974 205.248 425.639 211C428.948 218.143 435.108 224.317 442.192 227.587C447.693 230.127 449.587 230.486 457 230.39C468.018 230.247 475.676 227.439 481.561 221.384L485.785 217.038L486.423 220.443C487.213 224.651 492.641 229.654 497.381 230.544C501.425 231.302 507.094 228.967 509.914 225.382C516.618 216.86 510.153 204.5 498.992 204.5C494.962 204.5 493.591 205.012 490.965 207.5C489.224 209.15 487.402 211.522 486.916 212.771L486.034 215.042L478.905 211.452C471.808 207.878 471.766 207.871 469.638 209.806C466.055 213.064 463.374 214 457.622 214C451.195 214 447.971 211.805 445.502 205.75L443.973 202H466.126H488.28L487.685 196.75C486.81 189.029 485.347 184.779 481.95 180.09C472.439 166.96 451.895 164.096 437.629 173.911L433 177.096V173.548V170H425.883C418.991 170 418.786 169.929 419.37 167.75C419.701 166.512 419.979 162.045 419.986 157.821C420.003 148.308 421.176 146.728 427.888 147.169L432.5 147.473L435.684 140.986C437.435 137.419 438.897 134.218 438.934 133.873C439.065 132.628 429.113 129.031 423.867 128.428C419.163 127.886 417.801 128.18 412.847 130.8L407.195 133.791L402.347 131.415C396.119 128.362 387.752 127.51 382.637 129.408ZM388.557 149.223C387.416 150.852 387 153.957 387 160.853V170.262L390.75 169.642C392.813 169.301 395.47 169.017 396.656 169.011C398.7 169.001 398.831 168.466 399.171 158.75C399.389 152.54 399.13 148.21 398.515 147.765C397.957 147.361 395.838 147.024 393.807 147.015C391.113 147.004 389.692 147.601 388.557 149.223ZM129.367 183.772C127.422 185.348 125 189.043 125 190.434C125 190.745 129.95 191 136 191C148.411 191 149.406 190.252 144.077 184.923C141.644 182.49 140.345 182.004 136.327 182.022C133.271 182.036 130.717 182.678 129.367 183.772ZM448.4 185.4C446.53 187.27 445 189.295 445 189.9C445 190.633 448.667 191 456 191C466.163 191 467 190.855 467 189.089C467 185.706 461.419 182 456.323 182C452.512 182 451.264 182.536 448.4 185.4ZM193.256 187.645C186.822 190.817 184.019 199.268 187.298 205.609C189.726 210.304 192.605 212.256 197.849 212.76C207.057 213.644 213.005 208.378 212.996 199.349C212.987 189.317 202.489 183.093 193.256 187.645ZM258.27 187.483C245.881 192.868 250.32 213.029 263.885 212.985C269.671 212.967 272.813 211.401 275.72 207.088C283.502 195.54 271.291 181.822 258.27 187.483ZM124 202.532C124 202.825 124.62 204.549 125.379 206.364C127.497 211.433 131.427 214 137.07 214C142.759 214 145.645 213.002 148.911 209.907L151.322 207.622L158.161 211.169L165 214.717V208.358V202H144.5C133.225 202 124 202.239 124 202.532ZM267 264.5C267 271.991 267.355 275.898 268 275.5C268.55 275.16 269 272.244 269 269.02C269 263.279 269.064 263.145 272.099 262.478C276.298 261.556 277.29 262.862 277.805 269.985C278.329 277.223 280 278.032 280 271.047C280 262.386 277.09 258.875 271.632 260.95C269.067 261.925 269 261.851 269 258.034C269 255.88 268.55 253.84 268 253.5C267.355 253.102 267 257.009 267 264.5ZM234.938 262.063C232.088 264.912 232.848 266.253 238.305 268C241.429 269 242.991 270.061 242.995 271.183C243.002 273.431 239.907 274.295 236.493 272.997C233.107 271.71 232.021 272.406 234.961 273.979C237.887 275.545 243.066 274.871 244.394 272.75C246.066 270.079 243.963 267.655 239.148 266.703C236.695 266.218 235 265.321 235 264.509C235 262.713 238.445 261.661 241.822 262.425C244.373 263.002 244.408 262.959 242.559 261.515C239.895 259.436 237.384 259.616 234.938 262.063ZM303.455 262.455C298.743 267.166 301.634 275 308.084 275C311.838 275 316 271.057 316 267.5C316 266.075 314.895 263.805 313.545 262.455C312.195 261.105 309.925 260 308.5 260C307.075 260 304.805 261.105 303.455 262.455ZM339.913 261.282C337.92 262.812 336 266.359 336 268.511C336 269.415 337.361 271.515 339.025 273.179C341.474 275.628 342.57 276.075 344.775 275.524C347.662 274.804 351 272.278 351 270.815C351 270.334 349.686 270.911 348.08 272.099C344.472 274.766 340.823 274.102 339.171 270.477C337.589 267.004 337.676 266.324 340 264C342.402 261.598 345.288 261.431 347.429 263.571C349.996 266.139 349.26 267 344.5 267C342.025 267 340 267.464 340 268.03C340 268.643 342.438 268.988 346.02 268.88C351.634 268.712 351.997 268.558 351.405 266.6C349.742 261.097 343.76 258.329 339.913 261.282ZM374.75 261.08C373.788 261.641 373 263.167 373 264.472C373 266.342 373.794 267.089 376.75 267.998C383.958 270.215 383.7 269.985 381.232 271.999C379.425 273.473 378.319 273.665 375.798 272.942C371.99 271.85 371.013 272.401 373.961 273.979C376.887 275.545 382.066 274.871 383.394 272.75C384.956 270.256 383.068 267.698 379.062 266.879C372.191 265.474 372.893 261.401 379.831 262.414C382.656 262.827 382.979 262.68 381.959 261.45C380.569 259.776 377.28 259.607 374.75 261.08ZM305.223 263.557C302.823 265.237 302.388 267.988 304.035 271.066C306.148 275.014 314 272.34 314 267.671C314 265.702 310.555 262 308.723 262C308.02 262 306.445 262.701 305.223 263.557Z" fill="black" fill-opacity="0.494"/>
<path fill-rule="evenodd" clip-rule="evenodd" d="M382.145 130.07C377.184 132.057 373.827 135.4 370.827 141.34C368.044 146.85 367.664 148.687 367.219 158.75L366.721 170H354.468C344.216 170 342.115 170.258 341.607 171.582C341.273 172.452 340.998 180.664 340.996 189.832C340.993 204.589 340.769 206.866 339.044 209.696C334.782 216.686 323.344 216.261 319.811 208.981C318.465 206.206 318.059 201.903 317.811 187.758L317.5 170.017L307.656 170.008L297.813 170L298.156 179.963L298.5 189.925L296.701 186.413C293.997 181.135 287.987 175.631 281.394 172.394C275.931 169.711 274.66 169.5 264 169.5C253.79 169.5 251.995 169.768 248 171.894C242.067 175.049 235.704 180.317 234.017 183.468C232.272 186.728 231.779 186.657 230.12 182.909C228.42 179.069 223.015 173.581 218.734 171.349C214.604 169.195 201.478 168.357 196.68 169.94C194.71 170.591 191.501 172.206 189.549 173.531L186 175.94V153.586C186 127.681 187.229 130.037 173.708 130.014L165.916 130L166.208 159.974L166.5 189.947L163.8 184.605C160.877 178.82 157.069 175.114 150.616 171.773C145.634 169.193 131.193 168.121 125.727 169.925C116.707 172.902 107.81 181.797 104.888 190.757C103.656 194.536 103.534 191.429 103.802 163.062L104.103 131.11L100.802 130.496C98.986 130.158 94.575 130.021 91 130.191L84.5 130.5L84.241 179.75L83.981 229H93.991H104V218.845V208.69L107.951 214.803C115.189 226.001 124.444 230.542 138.522 229.804C145.286 229.448 148.01 228.777 153.343 226.152C156.936 224.383 161 221.6 162.374 219.968C163.747 218.335 165.125 217 165.435 217C165.746 217 166 219.7 166 223V229H176.045H186.091L185.404 225.25C184.738 221.61 184.774 221.55 186.636 223.203C187.691 224.14 191.109 226.076 194.23 227.505C205.549 232.687 218.159 230.039 226.75 220.676C229.087 218.129 231.003 215.247 231.006 214.272C231.011 213.064 232.331 214.038 235.152 217.329C241.723 224.996 247.632 228.068 259.527 230.004C273.164 232.224 291.849 224.02 296.004 213.989C297.325 210.802 299 209.991 299 212.54C299 215.405 302.963 221.87 306.241 224.353C316.374 232.029 340.979 232.257 351.971 224.776C359.405 219.718 360.941 215.107 360.976 197.75L361 186H364H367V207.5V229H377H387V207.5V186H393H399V207.5V229H409H419V207.5V186H422.882H426.764L425.426 189.75C423.719 194.533 423.705 204.427 425.397 209.166C427.837 215.996 433.513 222.462 440.197 226.024C453.228 232.97 471.482 230.703 481.379 220.909C484.106 218.211 486.148 215.83 485.918 215.619C485.688 215.407 482.35 213.668 478.5 211.754C471.514 208.28 471.496 208.277 469.5 210.26C464.874 214.855 456.45 216.318 450.96 213.479C449.343 212.643 447.115 210.186 446.01 208.019C442.279 200.706 441.456 201 465.639 201H487.278L486.746 195.137C485.26 178.748 474.012 169 456.588 169C448.071 169 442.027 170.854 436.75 175.087L433 178.094V174.047V170H425.855H418.709L419.273 159.776C419.769 150.768 420.102 149.336 422.075 147.738C423.766 146.369 425.317 146.067 428.407 146.505L432.5 147.085L435.578 140.475L438.657 133.866L434.578 131.783C432.197 130.567 427.773 129.505 423.946 129.23C413.609 128.488 407.841 132.305 402.137 143.665C400.581 146.764 399.873 150.669 399.373 158.915L398.699 170H392.85H387V160.314C387 151.796 387.258 150.355 389.139 148.353C390.914 146.462 391.974 146.171 395.389 146.638C399.192 147.157 399.588 146.986 400.677 144.349C401.325 142.782 402.889 139.789 404.153 137.699C406.825 133.281 406.541 132.915 398.568 130.496C393.068 128.827 385.723 128.637 382.145 130.07ZM131.03 182.279C129.672 182.967 127.502 185.098 126.209 187.015L123.858 190.5L135.563 190.783C142 190.938 147.476 190.857 147.731 190.602C148.777 189.556 144.365 183.926 141.393 182.516C137.529 180.683 134.33 180.61 131.03 182.279ZM450.893 182.497C448.259 183.928 445 188.059 445 189.965C445 190.618 449.239 191 456.5 191C463.761 191 468 190.618 468 189.965C468 187.977 464.681 183.886 461.901 182.449C458.399 180.638 454.28 180.656 450.893 182.497ZM191.041 188.619C184.655 193.993 183.486 199.741 187.417 206.449C190.975 212.52 196.062 214.668 203.135 213.085C212.017 211.097 216.119 202.008 211.986 193.471C209.353 188.033 205.854 186 199.126 186C195.221 186 193.486 186.562 191.041 188.619ZM256.719 187.777C253.789 189.592 249.985 196.289 250.022 199.566C250.06 202.933 253.732 209.778 256.459 211.565C259.982 213.873 269.023 213.87 272.551 211.559C276.19 209.174 279.33 201.811 278.461 197.701C277.489 193.103 274.455 188.528 271.478 187.172C267.716 185.458 259.947 185.776 256.719 187.777ZM124.002 202.782C123.997 205.896 127.153 211.128 130.19 213.04C134.977 216.053 142.917 215.205 147.976 211.139L151.681 208.162L158.884 212.071L166.087 215.98L165.794 208.74L165.5 201.5H144.752C128.545 201.5 124.004 201.781 124.002 202.782ZM492.893 206.497C488.917 208.658 487 212.344 487 217.83C487 226.063 492.74 230.835 501.268 229.691C509.934 228.529 514.63 218.986 510.483 210.967C507.661 205.509 498.836 203.267 492.893 206.497ZM341.315 261.006C334.497 263.756 336.545 275.228 343.789 274.864C346.483 274.729 346.484 274.725 344 274.273C335.921 272.802 336.16 262 344.272 262C346.903 262 350.408 265.53 349.399 267.163C349.115 267.623 349.359 268 349.941 268C350.523 268 351 267.753 351 267.45C351 266.128 347.865 261 347.056 261C346.565 261 345.564 260.803 344.832 260.563C344.099 260.322 342.517 260.522 341.315 261.006ZM234.872 262.75C233.603 264.369 233.65 264.39 235.5 263.033C236.6 262.226 237.688 261.439 237.917 261.283C238.146 261.127 237.863 261 237.289 261C236.715 261 235.627 261.788 234.872 262.75ZM273 261.732C276.936 262.456 277.987 263.906 278.175 268.872L278.349 273.5L278.73 269.288C279.259 263.44 277.737 260.966 273.715 261.136C270.973 261.252 270.868 261.34 273 261.732ZM303.488 263.013C300.908 265.864 301.133 270.88 303.944 273.156C306.895 275.546 309.113 275.486 312.365 272.927C315.559 270.415 315.969 265.187 313.171 262.655C310.649 260.373 305.712 260.555 303.488 263.013ZM374.2 262.2C371.638 264.762 374.281 268.129 378.684 267.91C379.683 267.86 379.038 267.397 377.25 266.881C373.69 265.853 373.01 263.676 375.75 262.08C376.712 261.519 377.027 261.047 376.45 261.03C375.873 261.014 374.86 261.54 374.2 262.2ZM304.792 263.25C302.065 265.394 301.786 268.458 304.055 271.343C306.439 274.373 308.586 274.679 311.777 272.443C314.417 270.595 314.761 265.904 312.429 263.571C310.54 261.683 306.977 261.533 304.792 263.25ZM237.813 267.683C238.534 267.972 239.397 267.936 239.729 267.604C240.061 267.272 239.471 267.036 238.417 267.079C237.252 267.127 237.015 267.364 237.813 267.683ZM242 268.668C242.825 269.015 243.872 269.795 244.326 270.4C244.857 271.107 245.006 270.965 244.743 270C244.518 269.175 243.472 268.395 242.417 268.268C241.07 268.104 240.946 268.223 242 268.668ZM382 268.987C383.994 270.258 382.224 273.199 378.905 274.128C376.751 274.73 376.719 274.811 378.595 274.9C379.747 274.955 381.489 274.117 382.466 273.037C384.344 270.962 383.939 267.99 381.781 268.015C380.887 268.026 380.953 268.32 382 268.987ZM267.158 273C267.158 274.375 267.385 274.938 267.662 274.25C267.94 273.563 267.94 272.438 267.662 271.75C267.385 271.063 267.158 271.625 267.158 273ZM242.45 272.903C241.928 273.4 240.6 274.022 239.5 274.287C237.603 274.743 237.609 274.774 239.628 274.884C240.798 274.948 242.315 274.325 243 273.5C244.357 271.864 243.977 271.451 242.45 272.903ZM234.813 273.683C235.534 273.972 236.397 273.936 236.729 273.604C237.061 273.272 236.471 273.036 235.417 273.079C234.252 273.127 234.015 273.364 234.813 273.683Z" fill="black" fill-opacity="0.984"/>
</svg>
